<svg width="512" height="512" viewBox="0 0 512 512" xmlns="http://www.w3.org/2000/svg">
  <!-- Background circle -->
  <circle cx="256" cy="256" r="240" fill="#2563eb" stroke="#1e40af" stroke-width="32"/>

  <!-- Clock face -->
  <circle cx="256" cy="256" r="180" fill="#ffffff" stroke="#e5e7eb" stroke-width="4"/>

  <!-- Hour markers -->
  <g stroke="#374151" stroke-width="6" stroke-linecap="round">
    <line x1="256" y1="100" x2="256" y2="120"/>
    <line x1="256" y1="392" x2="256" y2="412"/>
    <line x1="100" y1="256" x2="120" y2="256"/>
    <line x1="392" y1="256" x2="412" y2="256"/>
    <line x1="149" y1="149" x2="165" y2="165"/>
    <line x1="347" y1="347" x2="363" y2="363"/>
    <line x1="149" y1="363" x2="165" y2="347"/>
    <line x1="347" y1="165" x2="363" y2="149"/>
  </g>

  <!-- Minute markers -->
  <g stroke="#9ca3af" stroke-width="3" stroke-linecap="round">
    <line x1="256" y1="90" x2="256" y2="105"/>
    <line x1="256" y1="407" x2="256" y2="422"/>
    <line x1="90" y1="256" x2="105" y2="256"/>
    <line x1="407" y1="256" x2="422" y2="256"/>
    <line x1="134" y1="134" x2="145" y2="145"/>
    <line x1="367" y1="367" x2="378" y2="378"/>
    <line x1="134" y1="378" x2="145" y2="367"/>
    <line x1="367" y1="145" x2="378" y2="134"/>
  </g>

  <!-- Clock hands -->
  <!-- Hour hand -->
  <line x1="256" y1="256" x2="256" y2="180" stroke="#1f2937" stroke-width="12" stroke-linecap="round"/>
  <!-- Minute hand -->
  <line x1="256" y1="256" x2="320" y2="256" stroke="#1f2937" stroke-width="8" stroke-linecap="round"/>
  <!-- Second hand -->
  <line x1="256" y1="256" x2="256" y2="130" stroke="#ef4444" stroke-width="4" stroke-linecap="round"/>

  <!-- Center dot -->
  <circle cx="256" cy="256" r="12" fill="#1f2937"/>
  <circle cx="256" cy="256" r="6" fill="#ffffff"/>
</svg>
